<?xml version="1.0" encoding="utf-8"?>
<!-- Generator: Adobe Illustrator 21.0.2, SVG Export Plug-In . SVG Version: 6.00 Build 0)  -->
<svg version="1.1" id="Слой_1" xmlns="http://www.w3.org/2000/svg" xmlns:xlink="http://www.w3.org/1999/xlink" x="0px" y="0px"
	 viewBox="0 0 500 500" style="enable-background:new 0 0 500 500;" xml:space="preserve">
<style type="text/css">
	.st0{fill:#151515;}
	.st1{fill:#21B352;}
</style>
<g>
	<g>
		<path class="st0" d="M55.6,221.7h5.8v56.9h-0.7l-36.3-42.8v42.3h-5.8v-56.8h0.7l36.3,42.5V221.7z"/>
		<path class="st0" d="M108.4,227.5h-37v-5.8h37V227.5z M106,252.8H71.5V247H106V252.8z M108.9,272.2v5.9H71.5v-5.9H108.9z"/>
		<path class="st0" d="M123.6,230.3h-5.8c0-5,0-8.5,0-8.5h5.8C123.6,221.7,123.6,225.4,123.6,230.3z M153.9,256.4l5.6,2.5
			c-1.2,13.6-9.7,19.8-20.5,19.8c-11.6,0-21.3-6.9-21.3-23c0-4.9,0-11.7,0-18h5.8c0,6.8,0,14.2,0,18.2c0,11.3,7.1,17,15.5,17
			C147.3,272.9,153.6,267.2,153.9,256.4z M159.7,221.7c0,0,0,16.4,0,28.4l-5.8-2.5c0-11.4,0-25.9,0-25.9H159.7z"/>
		<path class="st0" d="M203.2,278.1l-12.1-21.4c-0.1,0-0.2,0-0.3,0h-15.3v21.4h-5.8v-27.2h21.1c7.2,0,11.7-5.4,11.7-11.7
			c0-6.4-4.5-11.7-11.7-11.7h-21.1v-5.8c0,0,11.7,0,21.1,0c10.6,0,17.7,7.9,17.7,17.5c0,7.3-4.6,13.8-11.4,16.3l12.7,22.5H203.2z"/>
		<path class="st1" d="M269.6,250c0,15.9-11.4,28.7-27.3,28.7S215,265.9,215,250s11.5-28.7,27.4-28.7S269.6,234.1,269.6,250z
			 M263.7,250c0-12.7-8.7-23-21.3-23c-12.7,0-21.4,10.3-21.4,23c0,12.7,8.7,23,21.4,23C255,273,263.7,262.7,263.7,250z"/>
		<path class="st0" d="M322.8,263.3l5.2,2.5c-4.8,7.8-13.3,12.9-23.3,12.9c-15.9,0-27.8-12.9-27.8-28.7c0-15.9,11.9-28.7,27.8-28.7
			c10,0,18.4,5.1,23.3,12.8l-5.2,2.6c-3.9-5.9-10.4-9.7-18.1-9.7c-12.7,0-21.8,10.3-21.8,22.9c0,12.7,9.1,23,21.8,23
			C312.4,272.9,318.9,269.2,322.8,263.3z"/>
		<path class="st0" d="M387.8,250c0,15.9-11.4,28.7-27.3,28.7c-15.9,0-27.4-12.9-27.4-28.7s11.5-28.7,27.4-28.7
			C376.4,221.3,387.8,234.1,387.8,250z M381.9,250c0-12.7-8.7-23-21.3-23c-12.7,0-21.4,10.3-21.4,23c0,12.7,8.7,23,21.4,23
			C373.2,273,381.9,262.7,381.9,250z"/>
		<path class="st0" d="M430.2,278.1l-12.1-21.4c-0.1,0-0.2,0-0.3,0h-15.3v21.4h-5.8v-27.2h21.1c7.2,0,11.7-5.4,11.7-11.7
			c0-6.4-4.5-11.7-11.7-11.7h-21.1v-5.8c0,0,11.7,0,21.1,0c10.6,0,17.7,7.9,17.7,17.5c0,7.3-4.6,13.8-11.4,16.3l12.7,22.5H430.2z"/>
		<path class="st0" d="M480.9,227.5h-37v-5.8h37V227.5z M478.4,252.8H444V247h34.5V252.8z M481.4,272.2v5.9H444v-5.9H481.4z"/>
	</g>
	<path class="st0" d="M254.7,258.2c0,2.5-2,4.4-4.4,4.4c-2.4,0-4.4-1.9-4.4-4.4c0-2.4,2-4.4,4.4-4.4
		C252.7,253.8,254.7,255.8,254.7,258.2z"/>
</g>
</svg>
